<svg xmlns="http://www.w3.org/2000/svg" width="1671.456" height="1671.456" viewBox="0 0 1567 1567"><path fill="#fff" d="M583.89 277.25l22.75 37.51 48.32 83.77 140.75 243.81 242.56 420.1 88.05 152.54 42.7 75.02H845.2l-9.52-1.28-14.96-23.73-46.07-80.02-130.74-226.3-38.24-66.27-21.78-36.26-26.25 46.26-38.24 66.27-127 220.06-44.81 77.51c-2.88 4.93-10.75 21.07-15.28 23.01-2.1.9-6.13.75-8.48.75H0l46.45-81.27 101.81-176.29 288.62-500.13 88.77-153.78 58.24-101.28zm397.59 0l19.28 31.26 38.24 66.26 134.3 232.56 261.31 452.61 88.77 153.79 28.23 48.76 15 27.51h-323.82c-2.69 0-6.95.33-9.22-1.24-2.26-1.57-5.87-8.61-7.39-11.26l-15.17-26.26-70.75-122.53-236.11-408.85-62.72-108.78-17.3-30c-2.2-3.83-7.09-10.78-7.15-15.01-.05-4.76 9.15-18.87 11.96-23.75l32.51-56.27 79.29-137.53 19.5-33.76 21.24-37.51zM583.89 954.92l28.03 47.51 51.26 88.77 70.02 121.28 44.48 77.52H391.34l19.48-35.01 33.22-57.51 96.61-167.54 43.24-75.02z"/></svg>