<svg xmlns="http://www.w3.org/2000/svg" viewBox="0 0 5166 811"><path fill="#fff" d="M467 1l18.2 30 38.65 67 112.57 195 194 336 70.43 122L935 811H676l-7.61-1.02L656.42 791l-36.84-64-104.57-181-30.59-53L467 464l-20.99 37-30.59 53-101.57 176-35.84 62c-2.31 3.94-8.6 16.85-12.22 18.4-1.68.72-4.91.6-6.79.6H0l37.15-65 81.43-141 230.84-400 71-123L467 1zm318 0l15.42 25 30.59 53 107.41 186 209 362 71 123 22.58 39 12 22H994c-2.15 0-5.56.26-7.37-.99-1.81-1.26-4.7-6.89-5.91-9.01l-12.14-21L912 682 723.15 355l-50.16-87-13.84-24c-1.76-3.06-5.67-8.62-5.72-12-.04-3.81 7.32-15.09 9.57-19l26-45 63.42-110 15.59-27L785 1zm985 717c-14.22 8.06-36.98 15.37-53 19.37a312.32 312.32 0 0 1-55 8.72l-12 .91h-30l-9-.83-20-1.89c-70.85-9.24-127.68-39.96-178-90.28-24.68-24.68-47.08-55.18-61.69-87-20.17-43.93-28.87-91.84-28.31-140l.96-11c1.73-39.67 10.75-77.84 27.35-114 17.24-37.56 45.14-73.21 75.69-100.83 36.05-32.6 78.9-56.92 126-69.29 46.25-12.14 81.28-9.88 128-9.88h156v178h-144c-50.18 0-94.42-5.47-137 27.23-7.65 5.88-18.4 16.31-24.54 23.77-31.14 37.85-38.63 93.28-18.15 138 12.83 28.02 37.19 52.53 64.69 66.25 14.68 7.32 33.52 12.72 50 12.75 11.28.02 19.71.46 31-1.43 32.77-5.5 52.91-19.48 76-42.57h-54V345h268v402h-179v-29zm224-596h178v446h179v179h-357V122zm402 0h491v178h-491V122zm536 0h179v625h-179V122zm223 0h275 56l12 .91c39.74 2.78 81.87 12.31 115 35.53 12.06 8.45 22.05 17.43 31.71 28.56 27.34 31.5 40.09 75.23 44.45 116l1.84 22v42l-2.87 29c-7.83 56.37-29.66 106.45-79.13 138.31-29.33 18.89-63.6 28.18-98 31.85l-22 1.84h-43-112v179h-179V122zm581 0h171c2.01 0 5.12-.12 6.96.6 4.22 1.63 12.06 14.22 15.04 18.4l40.71 57 108.58 152 59.71 83V122h179v625h-171c-1.97 0-5.12.12-6.91-.6-3.85-1.54-11.98-14.44-14.8-18.4l-40-56L3915 435v312h-179V122zm626 0h178v625h-178V122zm223 0h268 63l23 1.84c38.95 4.16 73.4 13.67 106 36.18 9.47 6.54 13.97 10.94 22 18.98 33.26 33.31 47.28 79.29 52.16 125l1.84 23v38l-.91 10c-1.68 24.48-5.73 48.81-14.04 72-11.62 32.42-29.13 59.59-57.05 80.37-7.7 5.73-19.05 13.35-28 16.63l33.58 47 65.84 92 30 42 14.58 22h-193l-6.68-.57-14.46-18.43-41.71-58-55.15-77-11.58-16-6.72-7.98-7.7-1.02h-64v179h-179V122zM3334 390h133c12.21-.02 26.94-2.72 35.53-12.17 15.96-17.54 14.05-58.94-7.53-71.47-13.63-7.91-37.39-6.36-53-6.36h-108v90zm1430 0h133c12.34-.02 26.7-2.63 35.38-12.17 12.22-13.43 13.19-42.08 5.24-57.83-2.91-5.77-7.97-10.97-13.62-14.1-13.5-7.46-37.58-5.9-53-5.9h-107v90zm-2368-45h491v179h-491V345zM467 543l22.42 38 41 71 56 97L622 811H313l15.58-28 26.57-46 77.27-134L467 543zm1929 25h491v179h-491V568z"/></svg>